<svg width="24" height="24" viewBox="0 0 24 24" fill="none" xmlns="http://www.w3.org/2000/svg">
<path d="M21.6929 12.4631C21.6362 12.3261 21.5401 12.2089 21.4168 12.1265C21.2934 12.044 21.1484 12 21.0001 12H17.2501V4.5C17.2501 4.10218 17.0921 3.72064 16.8108 3.43934C16.5295 3.15804 16.1479 3 15.7501 3H8.2501C7.85228 3 7.47075 3.15804 7.18944 3.43934C6.90814 3.72064 6.7501 4.10218 6.7501 4.5V12H3.0001C2.85168 11.9999 2.70656 12.0438 2.58312 12.1262C2.45967 12.2086 2.36345 12.3258 2.30664 12.4629C2.24982 12.6 2.23497 12.7509 2.26396 12.8965C2.29294 13.042 2.36447 13.1757 2.46948 13.2806L11.4695 22.2806C11.5391 22.3504 11.6218 22.4057 11.7129 22.4434C11.8039 22.4812 11.9015 22.5006 12.0001 22.5006C12.0987 22.5006 12.1963 22.4812 12.2873 22.4434C12.3784 22.4057 12.4611 22.3504 12.5307 22.2806L21.5307 13.2806C21.6356 13.1757 21.707 13.042 21.7358 12.8965C21.7647 12.751 21.7498 12.6002 21.6929 12.4631ZM12.0001 20.6897L4.81042 13.5H7.5001C7.69902 13.5 7.88978 13.421 8.03043 13.2803C8.17109 13.1397 8.2501 12.9489 8.2501 12.75V4.5H15.7501V12.75C15.7501 12.9489 15.8291 13.1397 15.9698 13.2803C16.1104 13.421 16.3012 13.5 16.5001 13.5H19.1898L12.0001 20.6897Z" fill="black"/>
</svg>
