<svg width="24" height="24" viewBox="0 0 24 24" fill="none" xmlns="http://www.w3.org/2000/svg">
<path d="M21.5307 10.7195L12.5307 1.71948C12.4611 1.64974 12.3784 1.59443 12.2873 1.55668C12.1963 1.51894 12.0987 1.49951 12.0001 1.49951C11.9015 1.49951 11.8039 1.51894 11.7129 1.55668C11.6218 1.59443 11.5391 1.64974 11.4695 1.71948L2.46948 10.7195C2.36447 10.8244 2.29294 10.9581 2.26396 11.1036C2.23497 11.2492 2.24982 11.4001 2.30664 11.5372C2.36345 11.6743 2.45967 11.7915 2.58312 11.8739C2.70656 11.9563 2.85168 12.0002 3.0001 12.0001H6.7501V19.5001C6.7501 19.8979 6.90814 20.2795 7.18944 20.5608C7.47075 20.8421 7.85228 21.0001 8.2501 21.0001H15.7501C16.1479 21.0001 16.5295 20.8421 16.8108 20.5608C17.0921 20.2795 17.2501 19.8979 17.2501 19.5001V12.0001H21.0001C21.1485 12.0002 21.2936 11.9563 21.4171 11.8739C21.5405 11.7915 21.6368 11.6743 21.6936 11.5372C21.7504 11.4001 21.7652 11.2492 21.7363 11.1036C21.7073 10.9581 21.6357 10.8244 21.5307 10.7195ZM16.5001 10.5001C16.3012 10.5001 16.1104 10.5791 15.9698 10.7198C15.8291 10.8604 15.7501 11.0512 15.7501 11.2501V19.5001H8.2501V11.2501C8.2501 11.0512 8.17109 10.8604 8.03043 10.7198C7.88978 10.5791 7.69902 10.5001 7.5001 10.5001H4.81042L12.0001 3.31041L19.1898 10.5001H16.5001Z" fill="black"/>
</svg>
